<svg width="144" height="118" viewBox="0 0 144 118" fill="none" xmlns="http://www.w3.org/2000/svg">
<path d="M2 2H17.9277C20.4696 2 22.7124 3.66426 23.4516 6.09901L48.3862 88.2173C49.1254 90.6519 51.3682 92.3163 53.9099 92.3163H110.09C112.732 92.3163 115.037 90.5211 115.686 87.9576L125.746 48.2654C126.395 45.7017 128.7 43.9068 131.342 43.9068H141.284" stroke="#F9DB5E" stroke-width="3.75648" stroke-linecap="round"/>
<path d="M84.4932 32.005V66.5275H81.1631V32.005L82.8281 30.338L84.4932 32.005ZM80.1631 31.5919L70.2266 41.5402C69.617 42.1501 68.6528 42.1882 67.999 41.6544L67.8721 41.5402C67.2625 40.9296 67.2244 39.9628 67.7578 39.3077L67.8721 39.1808L80.1631 26.8751V31.5919ZM97.7832 39.1808C98.4337 39.8321 98.4337 40.8889 97.7832 41.5402C97.1737 42.1502 96.2095 42.1882 95.5557 41.6544L95.4287 41.5402L85.4932 31.5919V26.8761L97.7832 39.1808ZM84.4932 27.0665V30.5909L83.1816 29.2784L82.8281 28.924L82.4746 29.2784L81.1631 30.5909V27.0665H84.4932ZM81.6504 25.3868C82.26 24.7766 83.225 24.7385 83.8789 25.2726L84.0049 25.3868L84.6836 26.0665H80.9717L81.6504 25.3868Z" fill="#F9DB5E" stroke="#F9DB5E"/>
<path d="M67.6726 116.16C71.2597 116.16 74.1677 113.249 74.1677 109.657C74.1677 106.066 71.2597 103.154 67.6726 103.154C64.0854 103.154 61.1775 106.066 61.1775 109.657C61.1775 113.249 64.0854 116.16 67.6726 116.16Z" stroke="#F9DB5E" stroke-width="3.00518"/>
<path d="M99.4265 116.16C103.014 116.16 105.922 113.249 105.922 109.657C105.922 106.066 103.014 103.154 99.4265 103.154C95.8394 103.154 92.9314 106.066 92.9314 109.657C92.9314 113.249 95.8394 116.16 99.4265 116.16Z" stroke="#F9DB5E" stroke-width="3.00518"/>
</svg>
